<svg xmlns="http://www.w3.org/2000/svg" xmlns:xlink="http://www.w3.org/1999/xlink" width="500" zoomAndPan="magnify" viewBox="0 0 375 374.999991" height="500" preserveAspectRatio="xMidYMid meet" version="1.0"><defs><clipPath id="5233b43638"><path d="M 111 110.34375 L 265.171875 110.34375 L 265.171875 264.84375 L 111 264.84375 Z M 111 110.34375 " clip-rule="nonzero"/></clipPath></defs><g clip-path="url(#5233b43638)"><path fill="#fff" d="M 181.496094 147.78125 L 188.144531 147.78125 C 193.089844 147.78125 193.089844 155.238281 188.144531 155.238281 L 181.578125 155.238281 C 176.632812 155.238281 176.632812 147.78125 181.496094 147.78125 Z M 178.820312 110.65625 L 258.421875 110.65625 C 262.070312 110.65625 265.066406 113.65625 265.066406 117.304688 L 265.066406 133.839844 C 265.066406 135.542969 264.5 136.917969 263.445312 138.214844 L 190.089844 223.730469 C 186.359375 228.027344 189.441406 234.757812 195.113281 234.757812 L 258.421875 234.757812 C 262.070312 234.757812 265.066406 237.753906 265.066406 241.402344 L 265.066406 257.695312 C 265.066406 261.34375 262.070312 264.34375 258.421875 264.34375 L 153.53125 264.34375 C 154.179688 261.992188 152.398438 259.804688 150.695312 259.640625 L 136.753906 259.640625 C 131.96875 259.640625 131.484375 252.183594 137.078125 252.183594 L 170.636719 252.183594 C 175.578125 252.183594 175.578125 244.726562 170.636719 244.726562 L 127.675781 244.808594 C 122.730469 244.808594 122.730469 237.351562 127.675781 237.351562 C 134.484375 237.351562 141.292969 237.351562 148.101562 237.351562 C 153.046875 237.351562 153.046875 229.894531 148.101562 229.894531 L 137.886719 229.894531 C 132.945312 229.894531 132.945312 222.433594 137.886719 222.433594 L 158.152344 222.433594 C 162.691406 222.433594 163.746094 214.976562 157.421875 214.976562 L 148.667969 214.976562 C 143.722656 214.976562 143.722656 207.519531 148.667969 207.519531 L 185.0625 207.519531 C 190.007812 207.519531 190.007812 200.0625 185.0625 200.0625 L 160.015625 200.0625 C 155.070312 200.0625 155.070312 192.605469 160.015625 192.605469 C 167.878906 192.605469 175.660156 192.605469 183.523438 192.605469 C 188.304688 192.605469 188.792969 185.148438 183.199219 185.148438 L 176.796875 185.148438 C 171.851562 185.148438 171.851562 177.691406 176.796875 177.691406 C 189.683594 177.691406 202.570312 177.691406 215.542969 177.691406 C 220.484375 177.691406 220.484375 170.234375 215.542969 170.234375 L 178.820312 170.234375 C 173.878906 170.234375 173.878906 162.777344 178.820312 162.777344 L 209.867188 162.777344 C 214.8125 162.777344 214.8125 155.320312 209.867188 155.320312 C 206.21875 155.320312 202.570312 155.320312 198.925781 155.320312 C 193.980469 155.320312 193.980469 147.863281 198.925781 147.863281 L 222.429688 147.863281 C 227.375 147.863281 227.375 140.40625 222.429688 140.40625 L 143.804688 140.324219 C 138.859375 140.324219 138.859375 132.867188 143.804688 132.867188 C 150.855469 132.867188 148.261719 132.867188 155.316406 132.867188 C 160.421875 132.867188 160.179688 124.921875 154.828125 125.410156 L 147.453125 125.492188 C 142.671875 125.492188 142.425781 118.4375 147.128906 118.03125 C 159.773438 118.03125 164.960938 118.03125 177.605469 118.03125 C 173.632812 116.492188 174.6875 110.65625 178.820312 110.65625 Z M 114.867188 252.265625 L 127.835938 252.265625 C 132.78125 252.265625 132.78125 259.722656 127.835938 259.722656 L 114.867188 259.722656 C 109.921875 259.722656 109.921875 252.265625 114.867188 252.265625 Z M 122.566406 192.605469 C 125 192.605469 129.621094 192.039062 129.621094 196.335938 C 129.621094 200.628906 124.917969 200.0625 122.566406 200.0625 C 117.625 200.0625 117.625 192.605469 122.566406 192.605469 Z M 124.675781 222.433594 C 127.105469 222.433594 131.726562 221.867188 131.726562 226.164062 C 131.726562 230.460938 127.027344 229.894531 124.675781 229.894531 C 119.730469 229.894531 119.730469 222.433594 124.675781 222.433594 Z M 136.347656 192.605469 L 149.316406 192.605469 C 154.261719 192.605469 154.261719 200.0625 149.316406 200.0625 L 136.347656 200.0625 C 131.402344 200.0625 131.402344 192.605469 136.347656 192.605469 Z M 164.800781 162.695312 C 167.230469 162.695312 171.851562 162.128906 171.851562 166.425781 C 171.851562 170.71875 167.148438 170.152344 164.800781 170.152344 C 159.855469 170.152344 159.855469 162.695312 164.800781 162.695312 Z M 132.214844 117.871094 C 135.457031 117.871094 140.726562 117.058594 140.726562 121.597656 C 140.726562 126.140625 135.457031 125.328125 132.214844 125.328125 C 127.269531 125.410156 127.269531 117.871094 132.214844 117.871094 Z M 132.214844 117.871094 " fill-opacity="1" fill-rule="nonzero"/></g></svg>